<?xml version="1.0" encoding="UTF-8"?>
<svg xmlns="http://www.w3.org/2000/svg" xmlns:xlink="http://www.w3.org/1999/xlink" width="12pt" height="12pt" viewBox="0 0 12 12" version="1.1">
<defs>
<filter id="alpha" filterUnits="objectBoundingBox" x="0%" y="0%" width="100%" height="100%">
  <feColorMatrix type="matrix" in="SourceGraphic" values="0 0 0 0 1 0 0 0 0 1 0 0 0 0 1 0 0 0 1 0"/>
</filter>
<mask id="mask0">
  <g filter="url(#alpha)">
<rect x="0" y="0" width="12" height="12" style="fill:rgb(0%,0%,0%);fill-opacity:0.301961;stroke:none;"/>
  </g>
</mask>
<clipPath id="clip1">
  <rect width="12" height="12"/>
</clipPath>
<g id="surface6" clip-path="url(#clip1)">
<path style=" stroke:none;fill-rule:nonzero;fill:rgb(0%,0%,0%);fill-opacity:1;" d="M 8.75 4 C 8.980469 4 9.203125 3.976562 9.421875 3.941406 C 8.71875 2.78125 7.449219 2 6 2 C 5.769531 2 5.546875 2.023438 5.328125 2.058594 C 6.03125 3.21875 7.300781 4 8.75 4 Z M 4.039062 2.515625 C 3.183594 3 2.523438 3.789062 2.210938 4.734375 C 3.066406 4.25 3.726562 3.460938 4.039062 2.515625 Z M 4.039062 2.515625 "/>
</g>
</defs>
<g id="surface1">
<use xlink:href="#surface6" mask="url(#mask0)"/>
<path style=" stroke:none;fill-rule:nonzero;fill:rgb(0%,0%,0%);fill-opacity:1;" d="M 6 1 C 3.238281 1 1 3.238281 1 6 C 1 8.761719 3.238281 11 6 11 C 8.761719 11 11 8.761719 11 6 C 11 3.238281 8.761719 1 6 1 Z M 6 2 C 7.449219 2 8.71875 2.78125 9.421875 3.941406 C 9.203125 3.976562 8.980469 4 8.75 4 C 7.300781 4 6.03125 3.21875 5.328125 2.058594 C 5.546875 2.023438 5.769531 2 6 2 Z M 4.039062 2.515625 C 3.726562 3.460938 3.066406 4.25 2.210938 4.734375 C 2.523438 3.789062 3.183594 3 4.039062 2.515625 Z M 6 10 C 3.796875 10 2 8.203125 2 6 C 2 5.976562 2.003906 5.949219 2.003906 5.925781 C 3.304688 5.433594 4.34375 4.429688 4.875 3.148438 C 5.789062 4.28125 7.183594 5 8.75 5 C 9.125 5 9.484375 4.953125 9.835938 4.878906 C 9.941406 5.234375 10 5.609375 10 6 C 10 8.203125 8.203125 10 6 10 Z M 6 10 "/>
<path style=" stroke:none;fill-rule:nonzero;fill:rgb(0%,0%,0%);fill-opacity:1;" d="M 5.125 6.5 C 5.125 6.84375 4.84375 7.125 4.5 7.125 C 4.15625 7.125 3.875 6.84375 3.875 6.5 C 3.875 6.15625 4.15625 5.875 4.5 5.875 C 4.84375 5.875 5.125 6.15625 5.125 6.5 Z M 5.125 6.5 "/>
<path style=" stroke:none;fill-rule:nonzero;fill:rgb(0%,0%,0%);fill-opacity:1;" d="M 8.125 6.5 C 8.125 6.84375 7.84375 7.125 7.5 7.125 C 7.15625 7.125 6.875 6.84375 6.875 6.5 C 6.875 6.15625 7.15625 5.875 7.5 5.875 C 7.84375 5.875 8.125 6.15625 8.125 6.5 Z M 8.125 6.5 "/>
</g>
</svg>
